<svg width="35" height="35" viewBox="0 0 35 35" fill="none" xmlns="http://www.w3.org/2000/svg">
<path d="M27.861 29.2865L10.0448 11.4845V27.0851L8.07617 29.2513V6.31952L25.8994 24.5591V10.9059L18.018 16.2754L27.861 5.875V29.2865Z" fill="white"/>
<path d="M17.9684 34.5806C8.59109 34.5806 0.970703 26.9531 0.970703 17.5758C0.970703 8.20557 8.59815 0.578125 17.9684 0.578125C27.3457 0.578125 34.9661 8.20557 34.9661 17.5758C34.9732 26.9531 27.3457 34.5806 17.9684 34.5806ZM17.9684 2.08809C9.42369 2.08809 2.47361 9.03817 2.47361 17.5758C2.47361 26.1206 9.42369 33.0706 17.9684 33.0706C26.5131 33.0706 33.4632 26.1206 33.4632 17.5758C33.4632 9.03817 26.5131 2.08809 17.9684 2.08809Z" fill="white"/>
</svg>
