<?xml version="1.0" encoding="utf-8"?>
<!-- Generator: Adobe Illustrator 26.4.1, SVG Export Plug-In . SVG Version: 6.00 Build 0)  -->
<svg version="1.1" id="Layer_1" xmlns="http://www.w3.org/2000/svg" xmlns:xlink="http://www.w3.org/1999/xlink" x="0px" y="0px"
	 viewBox="0 0 56.69 56.69" style="enable-background:new 0 0 56.69 56.69;" xml:space="preserve">
<style type="text/css">
	.Arched_x0020_Green{fill:url(#SVGID_1_);stroke:#FFFFFF;stroke-width:0.25;stroke-miterlimit:1;}
</style>
<linearGradient id="SVGID_1_" gradientUnits="userSpaceOnUse" x1="-269.2935" y1="449.2915" x2="-268.5864" y2="448.5844">
	<stop  offset="0" style="stop-color:#20AC4B"/>
	<stop  offset="0.9831" style="stop-color:#19361A"/>
</linearGradient>
<g>
	<g>
		<path d="M42.32,45.76L17.07,20.53v22.11l-2.79,3.07v-32.5l25.26,25.85V19.71l-11.17,7.61l13.95-14.74V45.76z"/>
	</g>
	<path d="M28.3,53.26c-13.29,0-24.09-10.81-24.09-24.1c0-13.28,10.81-24.09,24.09-24.09c13.29,0,24.09,10.81,24.09,24.09
		C52.4,42.45,41.59,53.26,28.3,53.26L28.3,53.26z M28.3,7.21c-12.11,0-21.96,9.85-21.96,21.95c0,12.11,9.85,21.96,21.96,21.96
		c12.11,0,21.96-9.85,21.96-21.96C50.26,17.06,40.41,7.21,28.3,7.21L28.3,7.21z"/>
</g>
</svg>
